<?xml version="1.0" encoding="UTF-8"?>
<svg width="24px" height="41px" viewBox="0 0 24 41" version="1.1" xmlns="http://www.w3.org/2000/svg" xmlns:xlink="http://www.w3.org/1999/xlink">
    <!-- Generator: Sketch 46 (44423) - http://www.bohemiancoding.com/sketch -->
    <title>Scribe Nib</title>
    <desc>Created with Sketch.</desc>
    <defs>
        <path d="M14.5390116,30.1808794 C13.006536,32.4533253 11.5666722,35.3052903 10.5154212,38.8472306 L9.49385587,38.6630601 L12.657267,18.0653582 C13.5737777,17.9233118 14.3399517,17.1552819 14.4993449,16.1149147 C14.6976807,14.8276808 13.8934697,13.6119599 12.7043604,13.3974209 C11.5143455,13.1838615 10.3904425,14.053773 10.1921066,15.341007 C10.0327135,16.3813741 10.5281002,17.3756986 11.353141,17.8312266 L8.1897299,38.4289285 L7.16725893,38.2457377 C7.39910354,24.8199076 0.151242386,18.1309934 0.151242386,18.1309934 L5.77166302,0.12931117 L14.539012,1.70507399 L14.539012,30.1808805 L14.5390116,30.1808794 Z" id="path-1"></path>
        <path d="M0.405728077,35.0610737 L3.20235375,16.8515965 C2.37731295,16.3960685 1.88192621,15.401744 2.04131939,14.3613769 C2.23965521,13.074143 3.36355821,12.2042315 4.55357315,12.4177908 C5.74268244,12.6323298 6.54689345,13.8480507 6.34855763,15.1352846 C6.18916446,16.1756518 5.42299045,16.9436818 4.50647971,17.0857281 L1.34306861,37.6834301 L2.36463395,37.8676005 C6.15927824,25.0824484 15.0173727,21.2873615 15.0173727,21.2873615 L15.0789564,2.28743622 L4.98074036,0.472475585 L0.405728077,0.472475585 L0.405728077,35.0610737 L0.405728077,35.0610737 Z" id="path-3"></path>
    </defs>
    <g id="Page-1" stroke="none" stroke-width="1" fill="none" fill-rule="evenodd">
        <g id="Scribe-Nib">
            <g id="Group-118" transform="translate(0.000000, 1.959260)">
                <g id="Group-114">
                    <mask id="mask-2" fill="white">
                        <use xlink:href="#path-1"></use>
                    </mask>
                    <g id="Clip-113"></g>
                    <polygon id="Fill-112" fill="#20CE94" mask="url(#mask-2)" points="-3.95421859 38.1540443 8.5563342 40.4022954 14.539012 1.45220362 2.02755361 -0.796047398"></polygon>
                </g>
                <g id="Group-117" transform="translate(8.150787, 0.979630)">
                    <mask id="mask-4" fill="white">
                        <use xlink:href="#path-3"></use>
                    </mask>
                    <g id="Clip-116"></g>
                    <polygon id="Fill-115" fill="#1BEDAC" mask="url(#mask-4)" points="0.405728077 39.4225673 12.9162809 41.6708183 18.8989587 2.7207266 6.38750028 0.472475585"></polygon>
                </g>
            </g>
            <g id="Group-125" transform="translate(5.433858, 0.000000)" fill="#75937D">
                <polygon id="Fill-119" points="17.8396281 4.58221967 0.489318928 1.46405715 0.423206987 1.89215549 17.7744218 5.00933838"></polygon>
                <polygon id="Fill-121" points="17.9348111 3.96230976 0.58450201 0.844147235 0.518390069 1.27224558 17.8696048 4.38942847"></polygon>
                <polygon id="Fill-123" points="18.0299942 3.34239985 0.679685093 0.224237324 0.613573152 0.652335666 17.9647879 3.76951856"></polygon>
            </g>
        </g>
    </g>
</svg>